<?xml version="1.0" encoding="utf-8"?>
<!-- Generator: Adobe Illustrator 28.1.0, SVG Export Plug-In . SVG Version: 6.00 Build 0)  -->
<svg version="1.1" id="Lager_1" xmlns="http://www.w3.org/2000/svg" xmlns:xlink="http://www.w3.org/1999/xlink" x="0px" y="0px"
	 viewBox="0 0 283.46 46.28" style="enable-background:new 0 0 283.46 46.28;" xml:space="preserve">
<style type="text/css">
	.st0{fill:#182637;}
</style>
<g>
	<path class="st0" d="M120.53,0.6L92.17,45.49h14.84l4.89-7.84h23.11l1.99,7.84h14.3L139.12,0.6H120.53z M117.94,27.88l10.38-16.83
		l4.22,16.83H117.94z"/>
	<polygon class="st0" points="162.6,0.6 153.85,45.49 167.91,45.49 176.66,0.6 	"/>
	<path class="st0" d="M206.59,0h-2.23c-20.52,0-23.77,7.96-23.77,14.24c0,6.88,3.56,12.67,17.98,13.09l5.61,0.18
		c6.16,0.18,7.48,1.81,7.48,4.1c0,2.23-1.45,4.95-10.26,4.95h-0.42c-8.69,0-8.99-3.98-8.99-5.97h-15.27
		c-0.78,6.34,1.15,15.69,23.17,15.69h1.63c21.36,0,25.28-8.57,25.28-15.57c0-7.72-3.38-13.03-18.58-13.46l-5.61-0.18
		c-5.85-0.18-7.18-1.57-7.18-3.5c0-2.11,1.15-4.1,9.47-4.1h0.54c8.08,0,8.81,2.71,8.81,4.65h14.96C230.24,6.94,227.46,0,206.59,0z"
		/>
	<path class="st0" d="M258.97,9.47h0.54c8.08,0,8.81,2.71,8.81,4.65h14.96C284.31,6.94,281.53,0,260.66,0h-2.23
		c-20.52,0-23.77,7.96-23.77,14.24c0,6.88,3.56,12.67,17.98,13.09l5.61,0.18c6.15,0.18,7.48,1.81,7.48,4.1
		c0,2.23-1.45,4.95-10.26,4.95h-0.42c-8.69,0-8.99-3.98-8.99-5.97h-15.26c-0.78,6.34,1.15,15.69,23.17,15.69h1.63
		c21.36,0,25.28-8.57,25.28-15.57c0-7.72-3.38-13.03-18.58-13.46l-5.61-0.18c-5.85-0.18-7.18-1.57-7.18-3.5
		C249.49,11.46,250.64,9.47,258.97,9.47z"/>
	<polygon class="st0" points="27.87,4.41 20.61,41.68 32.07,41.68 39.33,4.41 	"/>
	<polygon class="st0" points="14.14,10.08 9.09,36.01 17.06,36.01 22.11,10.08 	"/>
	<polygon class="st0" points="0,31.72 5.33,31.72 8.72,14.37 3.38,14.37 	"/>
	<polygon class="st0" points="36.05,45.49 49.81,45.49 53.49,26.48 58.41,0.6 44.8,0.6 	"/>
	<polygon class="st0" points="83.84,0.6 78.4,28.48 62.33,5.13 59.03,22.46 75.21,45.49 88.78,45.49 97.53,0.6 	"/>
</g>
</svg>
